# xmcd
#
# Track frame offsets: 
#        150
#        5515
#        6929
#        28932
#        54566
#        80802
#        84760
#        103583
#        128043
#        157828
#        187620
#        217849
#        248577
#        277710
#        291062
#        308821
#        329060
#
# Disc length: 4659 seconds
#
# Revision: 0
# Processed by: cddbd v1.5.2PL0 Copyright (c) Steve Scherf et al.
# Submitted via: ExactAudioCopy v1.0b1
#
DISCID=d2123111
DTITLE=George Harrison  - Art Of Dying - Disc 4
DYEAR=1900
DGENRE=
TTITLE0=I'll Still Love You
TTITLE1=I'll Still Love You
TTITLE2=I'll Still Love You
TTITLE3=Isn't It A Pity
TTITLE4=Isn't It A Pity
TTITLE5=It's Johnny's Birthday
TTITLE6=Let It Down
TTITLE7=Let It Down
TTITLE8=Let It Down
TTITLE9=Let It Down
TTITLE10=Let It Down
TTITLE11=Let It Down
TTITLE12=Let It Down
TTITLE13=Mother Divine
TTITLE14=My Sweet Lord
TTITLE15=My Sweet Lord
TTITLE16=My Sweet Lord
EXTD=
EXTT0=
EXTT1=
EXTT2=
EXTT3=
EXTT4=
EXTT5=
EXTT6=
EXTT7=
EXTT8=
EXTT9=
EXTT10=
EXTT11=
EXTT12=
EXTT13=
EXTT14=
EXTT15=
EXTT16=
PLAYORDER=
